<svg xmlns="http://www.w3.org/2000/svg" xmlns:svg="http://www.w3.org/2000/svg" id="svg2" width="1410.097" height="712.524" version="1.1" viewBox="0 0 1321.966 667.991"><defs id="defs4"><marker style="overflow:visible" id="Arrow1Mend" orient="auto" refX="0" refY="0"><path style="fill:#000;fill-opacity:1;fill-rule:evenodd;stroke:#000;stroke-width:1pt;stroke-opacity:1" id="path4345" d="M 0,0 5,-5 -12.5,0 5,5 0,0 Z" transform="matrix(-0.4,0,0,-0.4,-4,0)"/></marker><filter id="filter4198-1-0-3" width="1.05" height="1.13" x="-.025" y="-.065" style="color-interpolation-filters:sRGB"><feGaussianBlur id="feGaussianBlur4200-9-6-4" stdDeviation=".795"/></filter><filter id="filter4198-1-0-3-3" width="1.05" height="1.13" x="-.025" y="-.065" style="color-interpolation-filters:sRGB"><feGaussianBlur id="feGaussianBlur4200-9-6-4-8" stdDeviation=".795"/></filter><marker style="overflow:visible" id="Arrow1Mend-1" orient="auto" refX="0" refY="0"><path style="fill:#000;fill-opacity:1;fill-rule:evenodd;stroke:#000;stroke-width:1pt;stroke-opacity:1" id="path4345-0" d="M 0,0 5,-5 -12.5,0 5,5 0,0 Z" transform="matrix(-0.4,0,0,-0.4,-4,0)"/></marker><marker style="overflow:visible" id="Arrow1Mend-1-6" orient="auto" refX="0" refY="0"><path style="fill:#000;fill-opacity:1;fill-rule:evenodd;stroke:#000;stroke-width:1pt;stroke-opacity:1" id="path4345-0-5" d="M 0,0 5,-5 -12.5,0 5,5 0,0 Z" transform="matrix(-0.4,0,0,-0.4,-4,0)"/></marker><marker style="overflow:visible" id="Arrow1Mend-1-6-2" orient="auto" refX="0" refY="0"><path style="fill:#000;fill-opacity:1;fill-rule:evenodd;stroke:#000;stroke-width:1pt;stroke-opacity:1" id="path4345-0-5-4" d="M 0,0 5,-5 -12.5,0 5,5 0,0 Z" transform="matrix(-0.4,0,0,-0.4,-4,0)"/></marker><marker style="overflow:visible" id="Arrow1Mend-1-6-4" orient="auto" refX="0" refY="0"><path style="fill:#000;fill-opacity:1;fill-rule:evenodd;stroke:#000;stroke-width:1pt;stroke-opacity:1" id="path4345-0-5-5" d="M 0,0 5,-5 -12.5,0 5,5 0,0 Z" transform="matrix(-0.4,0,0,-0.4,-4,0)"/></marker><marker style="overflow:visible" id="Arrow1Mend-1-8" orient="auto" refX="0" refY="0"><path style="fill:#000;fill-opacity:1;fill-rule:evenodd;stroke:#000;stroke-width:1pt;stroke-opacity:1" id="path4345-0-3" d="M 0,0 5,-5 -12.5,0 5,5 0,0 Z" transform="matrix(-0.4,0,0,-0.4,-4,0)"/></marker><marker style="overflow:visible" id="Arrow1Mend-1-8-3" orient="auto" refX="0" refY="0"><path style="fill:#000;fill-opacity:1;fill-rule:evenodd;stroke:#000;stroke-width:1pt;stroke-opacity:1" id="path4345-0-3-0" d="M 0,0 5,-5 -12.5,0 5,5 0,0 Z" transform="matrix(-0.4,0,0,-0.4,-4,0)"/></marker><filter id="filter4198-1-0-3-0" width="1.05" height="1.13" x="-.025" y="-.065" style="color-interpolation-filters:sRGB"><feGaussianBlur id="feGaussianBlur4200-9-6-4-4" stdDeviation=".795"/></filter><marker style="overflow:visible" id="Arrow1Mend-1-8-2" orient="auto" refX="0" refY="0"><path style="fill:#000;fill-opacity:1;fill-rule:evenodd;stroke:#000;stroke-width:1pt;stroke-opacity:1" id="path4345-0-3-2" d="M 0,0 5,-5 -12.5,0 5,5 0,0 Z" transform="matrix(-0.4,0,0,-0.4,-4,0)"/></marker><filter id="filter4198-1-0-3-39" width="1.05" height="1.13" x="-.025" y="-.065" style="color-interpolation-filters:sRGB"><feGaussianBlur id="feGaussianBlur4200-9-6-4-81" stdDeviation=".795"/></filter><marker style="overflow:visible" id="Arrow1Mend-1-88" orient="auto" refX="0" refY="0"><path style="fill:#000;fill-opacity:1;fill-rule:evenodd;stroke:#000;stroke-width:1pt;stroke-opacity:1" id="path4345-0-0" d="M 0,0 5,-5 -12.5,0 5,5 0,0 Z" transform="matrix(-0.4,0,0,-0.4,-4,0)"/></marker><marker style="overflow:visible" id="Arrow1Mend-1-8-25" orient="auto" refX="0" refY="0"><path style="fill:#000;fill-opacity:1;fill-rule:evenodd;stroke:#000;stroke-width:1pt;stroke-opacity:1" id="path4345-0-3-07" d="M 0,0 5,-5 -12.5,0 5,5 0,0 Z" transform="matrix(-0.4,0,0,-0.4,-4,0)"/></marker><marker style="overflow:visible" id="Arrow1Mend-1-6-2-2" orient="auto" refX="0" refY="0"><path style="fill:#000;fill-opacity:1;fill-rule:evenodd;stroke:#000;stroke-width:1pt;stroke-opacity:1" id="path4345-0-5-4-2" d="M 0,0 5,-5 -12.5,0 5,5 0,0 Z" transform="matrix(-0.4,0,0,-0.4,-4,0)"/></marker><marker style="overflow:visible" id="Arrow1Mend-1-6-2-2-6" orient="auto" refX="0" refY="0"><path style="fill:#000;fill-opacity:1;fill-rule:evenodd;stroke:#000;stroke-width:1pt;stroke-opacity:1" id="path4345-0-5-4-2-0" d="M 0,0 5,-5 -12.5,0 5,5 0,0 Z" transform="matrix(-0.4,0,0,-0.4,-4,0)"/></marker></defs><metadata id="metadata7"/><g id="layer1" transform="translate(782.22433,66.629243)"><rect id="rect3336-7-6-5-6" width="76.772" height="29.294" x="161.624" y="67.969" transform="matrix(5.2451769,0,0,3.3028092,-1170.8032,-149.93047)" style="fill:#bfd6e9;fill-opacity:1;fill-rule:evenodd;stroke:#000;stroke-width:1px;stroke-linecap:butt;stroke-linejoin:miter;stroke-opacity:1;filter:url(#filter4198-1-0-3-3)"/><text id="text4202" x="-122.304" y="133.274" xml:space="preserve" style="font-style:normal;font-weight:400;font-size:40px;line-height:125%;font-family:sans-serif;text-align:center;letter-spacing:0;word-spacing:0;text-anchor:middle;fill:#000;fill-opacity:1;stroke:none;stroke-width:1px;stroke-linecap:butt;stroke-linejoin:miter;stroke-opacity:1"><tspan style="font-style:normal;font-variant:normal;font-weight:700;font-stretch:normal;font-family:sans-serif;-inkscape-font-specification:'sans-serif Bold'" id="tspan4222" x="-122.304" y="133.274">Unroller</tspan></text><rect id="rect3336-7-6-5" width="76.772" height="29.294" x="161.624" y="67.969" transform="matrix(5.2451769,0,0,3.3028092,-1170.8032,113.78382)" style="fill:#96f1b0;fill-opacity:1;fill-rule:evenodd;stroke:#000;stroke-width:1px;stroke-linecap:butt;stroke-linejoin:miter;stroke-opacity:1;filter:url(#filter4198-1-0-3)"/><text id="text4210" x="-126.316" y="396.884" xml:space="preserve" style="font-style:normal;font-weight:400;font-size:40px;line-height:125%;font-family:sans-serif;text-align:center;letter-spacing:0;word-spacing:0;text-anchor:middle;fill:#000;fill-opacity:1;stroke:none;stroke-width:1px;stroke-linecap:butt;stroke-linejoin:miter;stroke-opacity:1"><tspan style="font-style:normal;font-variant:normal;font-weight:700;font-stretch:normal;font-family:sans-serif;-inkscape-font-specification:'sans-serif Bold'" id="tspan4224" x="-126.316" y="396.884">PrinterBackend</tspan></text><path id="path4330-1" d="m -120.57143,168.25647 0,162.85714" style="fill:none;fill-rule:evenodd;stroke:#000;stroke-width:4;stroke-linecap:butt;stroke-linejoin:miter;stroke-miterlimit:4;stroke-dasharray:none;stroke-opacity:1;marker-end:url(#Arrow1Mend-1)"/><text id="text7818" x="94.286" y="129.505" xml:space="preserve" style="font-style:normal;font-weight:400;font-size:15px;line-height:125%;font-family:sans-serif;letter-spacing:0;word-spacing:0;fill:#000;fill-opacity:1;stroke:none;stroke-width:1px;stroke-linecap:butt;stroke-linejoin:miter;stroke-opacity:1"><tspan style="font-size:25px" id="tspan7820" x="94.286" y="129.505">.execute()</tspan></text><text id="text7822" x="-248" y="569.219" xml:space="preserve" style="font-style:normal;font-weight:400;font-size:15px;line-height:125%;font-family:sans-serif;letter-spacing:0;word-spacing:0;fill:#000;fill-opacity:1;stroke:none;stroke-width:1px;stroke-linecap:butt;stroke-linejoin:miter;stroke-opacity:1"><tspan style="font-size:25px" id="tspan7824" x="-248" y="569.219">OpenQASM to stdout</tspan></text><text id="text7935" x="135.187" y="243.388" xml:space="preserve" style="font-style:normal;font-weight:400;font-size:25px;line-height:125%;font-family:sans-serif;letter-spacing:0;word-spacing:0;fill:#000;fill-opacity:1;stroke:none;stroke-width:1px;stroke-linecap:butt;stroke-linejoin:miter;stroke-opacity:1"><tspan id="tspan7937" x="135.187" y="243.388">UnrollerBackend method calls</tspan></text><path id="path4330-1-2" d="m -120.92759,434.55378 0,95.70907" style="fill:none;fill-rule:evenodd;stroke:#000;stroke-width:3.06642962;stroke-linecap:butt;stroke-linejoin:miter;stroke-miterlimit:4;stroke-dasharray:none;stroke-opacity:1;marker-end:url(#Arrow1Mend-1-8)"/><rect id="rect3336-7-6-5-2" width="76.772" height="29.294" x="161.624" y="67.969" transform="matrix(5.2451769,0,0,3.3028092,-722.47299,112.55073)" style="fill:#96f1b0;fill-opacity:1;fill-rule:evenodd;stroke:#000;stroke-width:1px;stroke-linecap:butt;stroke-linejoin:miter;stroke-opacity:1;filter:url(#filter4198-1-0-3-0)"/><text id="text4210-1" x="322.014" y="395.651" xml:space="preserve" style="font-style:normal;font-weight:400;font-size:40px;line-height:125%;font-family:sans-serif;text-align:center;letter-spacing:0;word-spacing:0;text-anchor:middle;fill:#000;fill-opacity:1;stroke:none;stroke-width:1px;stroke-linecap:butt;stroke-linejoin:miter;stroke-opacity:1"><tspan style="font-style:normal;font-variant:normal;font-weight:700;font-stretch:normal;font-family:sans-serif;-inkscape-font-specification:'sans-serif Bold'" id="tspan4224-1" x="322.014" y="395.651">CircuitBackend</tspan></text><text id="text7822-0" x="325.539" y="567.986" xml:space="preserve" style="font-style:normal;font-weight:400;font-size:15px;line-height:125%;font-family:sans-serif;text-align:center;letter-spacing:0;word-spacing:0;text-anchor:middle;fill:#000;fill-opacity:1;stroke:none;stroke-width:1px;stroke-linecap:butt;stroke-linejoin:miter;stroke-opacity:1"><tspan style="font-size:25px;text-align:center;text-anchor:middle" id="tspan7824-1" x="325.539" y="567.986">Circuit (DAG) object</tspan><tspan id="tspan9690" x="325.539" y="599.236" style="font-size:25px;text-align:center;text-anchor:middle">unroller.backend.circuit</tspan></text><path id="path4330-1-2-4" d="m 327.40259,433.32069 0,95.70907" style="fill:none;fill-rule:evenodd;stroke:#000;stroke-width:3.06599998;stroke-linecap:butt;stroke-linejoin:miter;stroke-miterlimit:4;stroke-dasharray:none;stroke-opacity:1;marker-end:url(#Arrow1Mend-1-6-2)"/><rect id="rect3336-7-6-5-1" width="76.772" height="29.294" x="161.624" y="67.969" transform="matrix(5.2451769,0,0,3.3028092,-1618.1873,112.55073)" style="fill:#96f1b0;fill-opacity:1;fill-rule:evenodd;stroke:#000;stroke-width:1px;stroke-linecap:butt;stroke-linejoin:miter;stroke-opacity:1;filter:url(#filter4198-1-0-3-39)"/><text id="text4210-6" x="-569.7" y="395.651" xml:space="preserve" style="font-style:normal;font-weight:400;font-size:40px;line-height:125%;font-family:sans-serif;text-align:center;letter-spacing:0;word-spacing:0;text-anchor:middle;fill:#000;fill-opacity:1;stroke:none;stroke-width:1px;stroke-linecap:butt;stroke-linejoin:miter;stroke-opacity:1"><tspan style="font-style:normal;font-variant:normal;font-weight:700;font-stretch:normal;font-family:sans-serif;-inkscape-font-specification:'sans-serif Bold'" id="tspan4224-6" x="-569.7" y="395.651">SimulatorBackend</tspan></text><text id="text7822-2" x="-576.297" y="567.986" xml:space="preserve" style="font-style:normal;font-weight:400;font-size:15px;line-height:125%;font-family:sans-serif;text-align:center;letter-spacing:0;word-spacing:0;text-anchor:middle;fill:#000;fill-opacity:1;stroke:none;stroke-width:1px;stroke-linecap:butt;stroke-linejoin:miter;stroke-opacity:1"><tspan style="font-size:25px;text-align:center;text-anchor:middle" id="tspan7824-0" x="-576.297" y="567.986">Simulator input data</tspan><tspan id="tspan3534" x="-576.297" y="599.236" style="font-size:25px;text-align:center;text-anchor:middle">unroller.backend.circuit</tspan></text><path id="path4330-1-2-1" d="m -568.31169,433.32069 0,95.70907" style="fill:none;fill-rule:evenodd;stroke:#000;stroke-width:3.06642962;stroke-linecap:butt;stroke-linejoin:miter;stroke-miterlimit:4;stroke-dasharray:none;stroke-opacity:1;marker-end:url(#Arrow1Mend-1-6-4)"/><path id="path4330-1-2-0" d="m -120.52696,-27.109377 0,95.709067" style="fill:none;fill-rule:evenodd;stroke:#000;stroke-width:3.06642962;stroke-linecap:butt;stroke-linejoin:miter;stroke-miterlimit:4;stroke-dasharray:none;stroke-opacity:1;marker-end:url(#Arrow1Mend-1-8-25)"/><text id="text7935-7" x="-180.89" y="-45.863" xml:space="preserve" style="font-style:normal;font-weight:400;font-size:25px;line-height:125%;font-family:sans-serif;letter-spacing:0;word-spacing:0;fill:#000;fill-opacity:1;stroke:none;stroke-width:1px;stroke-linecap:butt;stroke-linejoin:miter;stroke-opacity:1"><tspan id="tspan7937-4" x="-180.89" y="-45.863">Node (AST)</tspan></text><path id="path4330-1-1-5" d="M 14.870512,174.63691 245.31774,328.53255" style="fill:none;fill-rule:evenodd;stroke:#000;stroke-width:5.59183884;stroke-linecap:butt;stroke-linejoin:miter;stroke-miterlimit:4;stroke-dasharray:none;stroke-opacity:1;marker-end:url(#Arrow1Mend-1-6-2-2)"/><path id="path4330-1-1-5-5" d="M -253.06728,174.63689 -483.51451,328.53253" style="fill:none;fill-rule:evenodd;stroke:#000;stroke-width:5.59183884;stroke-linecap:butt;stroke-linejoin:miter;stroke-miterlimit:4;stroke-dasharray:none;stroke-opacity:1;marker-end:url(#Arrow1Mend-1-6-2-2-6)"/></g></svg>